<svg width="29" height="27" viewBox="0 0 29 27" fill="none" xmlns="http://www.w3.org/2000/svg">
<path d="M3.75 4V0.25H6.25V4H10V6.5H6.25V10.25H3.75V6.5H0V4H3.75ZM7.5 11.5V7.75H11.25V4H20L22.2875 6.5H26.25C27.625 6.5 28.75 7.625 28.75 9V24C28.75 25.375 27.625 26.5 26.25 26.5H6.25C4.875 26.5 3.75 25.375 3.75 24V11.5H7.5ZM16.25 22.75C19.7 22.75 22.5 19.95 22.5 16.5C22.5 13.05 19.7 10.25 16.25 10.25C12.8 10.25 10 13.05 10 16.5C10 19.95 12.8 22.75 16.25 22.75ZM12.25 16.5C12.25 18.7125 14.0375 20.5 16.25 20.5C18.4625 20.5 20.25 18.7125 20.25 16.5C20.25 14.2875 18.4625 12.5 16.25 12.5C14.0375 12.5 12.25 14.2875 12.25 16.5Z" fill="white"/>
</svg>
