<svg width="54" height="54" viewBox="0 0 54 54" fill="none" xmlns="http://www.w3.org/2000/svg">
<circle cx="27" cy="27" r="27" fill="white"/>
<path d="M30.2483 27L36.5365 20.7118C37.4335 19.8148 37.4335 18.3605 36.5365 17.4635C35.6394 16.5665 34.1852 16.5665 33.2882 17.4635L27 23.7517L20.7118 17.4635C19.8148 16.5665 18.3605 16.5665 17.4635 17.4635C16.5665 18.3605 16.5665 19.8148 17.4635 20.7118L23.7517 27L17.4635 33.2882C16.5665 34.1852 16.5665 35.6395 17.4635 36.5365C17.912 36.9849 18.4998 37.2092 19.0876 37.2092C19.6755 37.2092 20.2633 36.985 20.7118 36.5365L27 30.2483L33.2882 36.5365C33.7367 36.9849 34.3245 37.2092 34.9123 37.2092C35.5001 37.2092 36.0879 36.985 36.5364 36.5365C37.4334 35.6395 37.4334 34.1852 36.5364 33.2882L30.2483 27Z" fill="#3B3436"/>
</svg>
