<svg width="24" height="24" viewBox="0 0 24 24" fill="none" xmlns="http://www.w3.org/2000/svg">
<g clip-path="url(#clip0_48_295)">
<path d="M11.9998 4.12203L10.9243 3.01653C8.39984 0.421527 3.77084 1.31703 2.09984 4.57953C1.31534 6.11403 1.13834 8.32953 2.57084 11.157C3.95084 13.8795 6.82184 17.1405 11.9998 20.6925C17.1778 17.1405 20.0473 13.8795 21.4288 11.157C22.8613 8.32803 22.6858 6.11403 21.8998 4.57953C20.2288 1.31703 15.5998 0.420027 13.0753 3.01503L11.9998 4.12203ZM11.9998 22.5C-10.9997 7.30203 4.91834 -4.55997 11.7358 1.71453C11.8258 1.79703 11.9143 1.88253 11.9998 1.97103C12.0845 1.88261 12.1725 1.79754 12.2638 1.71603C19.0798 -4.56297 34.9993 7.30053 11.9998 22.5Z" fill="white"/>
</g>
<defs>
<clipPath id="clip0_48_295">
<rect width="24" height="24" fill="white"/>
</clipPath>
</defs>
</svg>
