<svg width="29" height="24" viewBox="0 0 29 24" fill="none" xmlns="http://www.w3.org/2000/svg">
<path d="M28.5539 3.17122C27.5101 3.63372 26.3889 3.94622 25.2101 4.08747C26.4264 3.35971 27.3363 2.21431 27.7701 0.864974C26.6274 1.54371 25.3768 2.02147 24.0726 2.27747C23.1956 1.34106 22.034 0.720382 20.768 0.511817C19.5021 0.303251 18.2028 0.518464 17.0717 1.12404C15.9406 1.72962 15.0411 2.69168 14.5128 3.86085C13.9846 5.03003 13.8571 6.34091 14.1501 7.58997C11.8347 7.47372 9.56967 6.87191 7.50192 5.8236C5.43416 4.7753 3.60994 3.30393 2.14764 1.50497C1.64764 2.36747 1.36014 3.36747 1.36014 4.43247C1.35958 5.39122 1.59568 6.33528 2.04749 7.18089C2.49929 8.0265 3.15284 8.74752 3.95014 9.27997C3.02548 9.25055 2.12123 9.0007 1.31264 8.55122V8.62622C1.31254 9.9709 1.77768 11.2742 2.62912 12.315C3.48055 13.3557 4.66585 14.0699 5.98389 14.3362C5.12612 14.5684 4.22681 14.6026 3.35389 14.4362C3.72576 15.5932 4.45013 16.605 5.4256 17.3299C6.40106 18.0548 7.57878 18.4564 8.79389 18.4787C6.73118 20.098 4.18375 20.9763 1.56139 20.9725C1.09686 20.9726 0.632732 20.9455 0.171387 20.8912C2.83323 22.6027 5.93181 23.511 9.09639 23.5075C19.8089 23.5075 25.6651 14.635 25.6651 6.93997C25.6651 6.68997 25.6589 6.43747 25.6476 6.18747C26.7868 5.36369 27.77 4.34359 28.5514 3.17497L28.5539 3.17122Z" fill="black"/>
</svg>
